<svg xmlns="http://www.w3.org/2000/svg" viewBox="0 0 750 500"><g id="freepik--Stars--inject-11"><path d="M151.89,117.8c-7.48-.71-8-1.27-8.7-8.76-.71,7.48-1.27,8-8.76,8.7,7.48.72,8,1.28,8.7,8.76C143.85,119,144.41,118.47,151.89,117.8Z" style="fill:#0C6FF9"></path><path d="M651.51,213.64c-7.48-.71-8-1.27-8.69-8.76-.72,7.48-1.28,8-8.76,8.7,7.48.72,8,1.28,8.69,8.76C643.47,214.86,644,214.31,651.51,213.64Z" style="fill:#0C6FF9"></path><circle cx="513.69" cy="133.86" r="8.73" transform="translate(78.53 437.89) rotate(-49.55)" style="fill:#0C6FF9"></circle><path d="M560.93,344c-7.48-.71-8-1.27-8.7-8.76-.72,7.48-1.28,8-8.76,8.7,7.48.71,8,1.27,8.7,8.76C552.88,345.26,553.44,344.7,560.93,344Z" style="fill:#0C6FF9"></path><path d="M106.16,339.85c-7.48-.72-8-1.28-8.7-8.76-.71,7.48-1.27,8-8.76,8.69,7.48.72,8,1.28,8.7,8.76C98.11,341.06,98.67,340.51,106.16,339.85Z" style="fill:#0C6FF9"></path><path d="M188,146.7c-5-.48-5.43-.86-5.87-5.92-.49,5.05-.86,5.43-5.92,5.88,5.05.48,5.43.86,5.88,5.91C182.55,147.52,182.93,147.15,188,146.7Z" style="fill:#0C6FF9"></path><path d="M112.24,168.57c-5-.48-5.43-.86-5.87-5.91-.49,5.05-.87,5.42-5.92,5.87,5,.48,5.43.86,5.87,5.92C106.81,169.4,107.18,169,112.24,168.57Z" style="fill:#0C6FF9"></path><path d="M261.57,173.69c-5.05-.49-5.42-.86-5.87-5.92-.48,5-.86,5.43-5.91,5.88,5.05.48,5.42.86,5.87,5.91C256.14,174.51,256.52,174.13,261.57,173.69Z" style="fill:#0C6FF9"></path><path d="M210.64,307.57c-5-.48-5.43-.86-5.87-5.91-.49,5-.87,5.42-5.92,5.87,5.05.48,5.43.86,5.87,5.91C205.21,308.39,205.58,308,210.64,307.57Z" style="fill:#0C6FF9"></path><path d="M447.92,90.24c-5.05-.49-5.42-.86-5.87-5.92-.48,5.05-.86,5.43-5.91,5.88,5.05.48,5.42.86,5.87,5.91C442.49,91.06,442.87,90.68,447.92,90.24Z" style="fill:#0C6FF9"></path><path d="M376.73,332.62c-5.05-.48-5.43-.86-5.88-5.91-.48,5.05-.86,5.42-5.91,5.87,5.05.48,5.42.86,5.87,5.92C371.29,333.45,371.67,333.07,376.73,332.62Z" style="fill:#0C6FF9"></path><circle cx="681.58" cy="293.43" r="5.89" transform="translate(-0.06 586.73) rotate(-46.57)" style="fill:#0C6FF9"></circle><circle cx="561.52" cy="227.12" r="5.89" transform="translate(3.23 462.06) rotate(-44.84)" style="fill:#0C6FF9"></circle><path d="M154.4,239.89c-5.05-.48-5.42-.86-5.87-5.91-.48,5.05-.86,5.42-5.91,5.87,5,.48,5.42.86,5.87,5.91C149,240.71,149.35,240.34,154.4,239.89Z" style="fill:#0C6FF9"></path><path d="M357.1,116.07c-5.05-.49-5.42-.86-5.87-5.92-.48,5-.86,5.43-5.91,5.88,5.05.48,5.42.86,5.87,5.91C351.67,116.89,352.05,116.51,357.1,116.07Z" style="fill:#0C6FF9"></path><path d="M279.08,81.31c-5.05-.48-5.43-.86-5.88-5.91-.48,5-.86,5.42-5.91,5.87,5,.48,5.42.86,5.87,5.92C273.64,82.14,274,81.76,279.08,81.31Z" style="fill:#0C6FF9"></path><path d="M82.83,259.14c-5-.48-5.42-.86-5.87-5.91-.48,5-.86,5.43-5.91,5.87,5,.49,5.42.86,5.87,5.92C77.4,260,77.78,259.59,82.83,259.14Z" style="fill:#0C6FF9"></path><path d="M279.66,394c-5.05-.48-5.43-.86-5.87-5.91-.49,5.05-.87,5.42-5.92,5.87,5.05.48,5.43.86,5.87,5.91C274.23,394.78,274.61,394.41,279.66,394Z" style="fill:#0C6FF9"></path><path d="M613,396.66c-5-.48-5.43-.86-5.87-5.91-.49,5.05-.86,5.43-5.92,5.87,5,.49,5.43.86,5.88,5.92C607.59,397.49,608,397.11,613,396.66Z" style="fill:#0C6FF9"></path><path d="M644.38,105.78c-5-.48-5.42-.86-5.87-5.91-.48,5-.86,5.42-5.92,5.87,5,.48,5.43.86,5.88,5.92C639,106.61,639.33,106.23,644.38,105.78Z" style="fill:#0C6FF9"></path><g style="opacity:0.8"><path d="M151.89,117.8c-7.48-.71-8-1.27-8.7-8.76-.71,7.48-1.27,8-8.76,8.7,7.48.72,8,1.28,8.7,8.76C143.85,119,144.41,118.47,151.89,117.8Z" style="fill:#fff"></path><path d="M651.51,213.64c-7.48-.71-8-1.27-8.69-8.76-.72,7.48-1.28,8-8.76,8.7,7.48.72,8,1.28,8.69,8.76C643.47,214.86,644,214.31,651.51,213.64Z" style="fill:#fff"></path><circle cx="513.69" cy="133.86" r="8.73" transform="translate(78.53 437.89) rotate(-49.55)" style="fill:#fff"></circle><path d="M560.93,344c-7.48-.71-8-1.27-8.7-8.76-.72,7.48-1.28,8-8.76,8.7,7.48.71,8,1.27,8.7,8.76C552.88,345.26,553.44,344.7,560.93,344Z" style="fill:#fff"></path><path d="M106.16,339.85c-7.48-.72-8-1.28-8.7-8.76-.71,7.48-1.27,8-8.76,8.69,7.48.72,8,1.28,8.7,8.76C98.11,341.06,98.67,340.51,106.16,339.85Z" style="fill:#fff"></path><path d="M188,146.7c-5-.48-5.43-.86-5.87-5.92-.49,5.05-.86,5.43-5.92,5.88,5.05.48,5.43.86,5.88,5.91C182.55,147.52,182.93,147.15,188,146.7Z" style="fill:#fff"></path><path d="M112.24,168.57c-5-.48-5.43-.86-5.87-5.91-.49,5.05-.87,5.42-5.92,5.87,5,.48,5.43.86,5.87,5.92C106.81,169.4,107.18,169,112.24,168.57Z" style="fill:#fff"></path><path d="M261.57,173.69c-5.05-.49-5.42-.86-5.87-5.92-.48,5-.86,5.43-5.91,5.88,5.05.48,5.42.86,5.87,5.91C256.14,174.51,256.52,174.13,261.57,173.69Z" style="fill:#fff"></path><path d="M210.64,307.57c-5-.48-5.43-.86-5.87-5.91-.49,5-.87,5.42-5.92,5.87,5.05.48,5.43.86,5.87,5.91C205.21,308.39,205.58,308,210.64,307.57Z" style="fill:#fff"></path><path d="M447.92,90.24c-5.05-.49-5.42-.86-5.87-5.92-.48,5.05-.86,5.43-5.91,5.88,5.05.48,5.42.86,5.87,5.91C442.49,91.06,442.87,90.68,447.92,90.24Z" style="fill:#fff"></path><path d="M376.73,332.62c-5.05-.48-5.43-.86-5.88-5.91-.48,5.05-.86,5.42-5.91,5.87,5.05.48,5.42.86,5.87,5.92C371.29,333.45,371.67,333.07,376.73,332.62Z" style="fill:#fff"></path><circle cx="681.58" cy="293.43" r="5.89" transform="translate(-0.06 586.73) rotate(-46.57)" style="fill:#fff"></circle><circle cx="561.52" cy="227.12" r="5.89" transform="translate(3.23 462.06) rotate(-44.84)" style="fill:#fff"></circle><path d="M154.4,239.89c-5.05-.48-5.42-.86-5.87-5.91-.48,5.05-.86,5.42-5.91,5.87,5,.48,5.42.86,5.87,5.91C149,240.71,149.35,240.34,154.4,239.89Z" style="fill:#fff"></path><path d="M357.1,116.07c-5.05-.49-5.42-.86-5.87-5.92-.48,5-.86,5.43-5.91,5.88,5.05.48,5.42.86,5.87,5.91C351.67,116.89,352.05,116.51,357.1,116.07Z" style="fill:#fff"></path><path d="M279.08,81.31c-5.05-.48-5.43-.86-5.88-5.91-.48,5-.86,5.42-5.91,5.87,5,.48,5.42.86,5.87,5.92C273.64,82.14,274,81.76,279.08,81.31Z" style="fill:#fff"></path><path d="M82.83,259.14c-5-.48-5.42-.86-5.87-5.91-.48,5-.86,5.43-5.91,5.87,5,.49,5.42.86,5.87,5.92C77.4,260,77.78,259.59,82.83,259.14Z" style="fill:#fff"></path><path d="M279.66,394c-5.05-.48-5.43-.86-5.87-5.91-.49,5.05-.87,5.42-5.92,5.87,5.05.48,5.43.86,5.87,5.91C274.23,394.78,274.61,394.41,279.66,394Z" style="fill:#fff"></path><path d="M613,396.66c-5-.48-5.43-.86-5.87-5.91-.49,5.05-.86,5.43-5.92,5.87,5,.49,5.43.86,5.88,5.92C607.59,397.49,608,397.11,613,396.66Z" style="fill:#fff"></path><path d="M644.38,105.78c-5-.48-5.42-.86-5.87-5.91-.48,5-.86,5.42-5.92,5.87,5,.48,5.43.86,5.88,5.92C639,106.61,639.33,106.23,644.38,105.78Z" style="fill:#fff"></path></g></g><g id="freepik--Lines--inject-11"><path d="M331.58,423.36c-65.35,0-126.4-9.88-176.51-28.93-32.61-12.4-58.8-28-77.85-46.44C57.48,328.91,46.31,307.66,44,284.83s4.45-45.88,20-68.49c15-21.82,37.6-42.33,67.1-60.94C191.81,117.13,274.92,91.07,365.2,82s176.91,0,243.94,25.52c32.61,12.4,58.8,28,77.85,46.44,19.75,19.08,30.91,40.33,33.2,63.16s-4.45,45.88-20,68.49c-15,21.82-37.6,42.33-67.11,60.94C572.41,384.86,489.29,410.92,399,420,376.22,422.23,353.65,423.36,331.58,423.36ZM432.64,79.13c-22.06,0-44.6,1.13-67.39,3.41-90.2,9-173.24,35.05-233.83,73.28s-91.4,84-86.9,129S88.35,368.52,155.25,394,308.77,428.48,399,419.45s173.25-35.05,233.83-73.28,91.4-84,86.9-129S675.87,133.47,609,108C558.92,89,497.92,79.13,432.64,79.13Z" style="fill:#0C6FF9"></path><path d="M340.25,391.13c-56,0-108.29-8.76-151.2-25.65-27.67-10.89-49.9-24.57-66.1-40.67-16.78-16.68-26.3-35.23-28.29-55.15s3.66-40,16.8-59.66c12.69-19,31.77-36.8,56.73-53,51.31-33.21,121.69-55.72,198.17-63.37s149.93.46,206.8,22.84c27.67,10.89,49.91,24.58,66.1,40.67,16.78,16.68,26.3,35.24,28.29,55.15s-3.66,40-16.8,59.67C638.07,291,619,308.8,594,325c-51.31,33.21-121.69,55.71-198.17,63.37C377.07,390.21,358.46,391.13,340.25,391.13ZM422,91.36c-18.21,0-36.79.93-55.56,2.81-76.4,7.64-146.7,30.12-198,63.29s-77.22,73-73.3,112.15,37.33,73.07,94.07,95.41,130.16,30.46,206.57,22.81,146.71-30.12,198-63.29,77.23-73,73.3-112.16S629.72,139.31,573,117C530.13,100.12,477.86,91.36,422,91.36Z" style="fill:#0C6FF9"></path><path d="M346.57,364.49c-47.77,0-92.47-7.6-129.1-22.25-48.4-19.35-76.93-48.68-80.32-82.59s18.75-68.32,62.36-96.88S302.86,115,367.84,108.45s127.41.56,175.76,19.89,76.93,48.68,80.33,82.6-18.76,68.31-62.37,96.87-103.35,47.82-168.33,54.32C377.47,363.71,361.86,364.49,346.57,364.49Zm67.93-257.9c-15.27,0-30.86.78-46.61,2.36-64.9,6.49-124.6,25.76-168.1,54.24s-65.52,62.69-62.15,96.41,31.79,62.9,80,82.18,110.61,26.35,175.52,19.86,124.61-25.76,168.1-54.25S626.8,244.7,623.43,211s-31.79-62.91-80-82.19C506.84,114.18,462.21,106.59,414.5,106.59Z" style="fill:#0C6FF9"></path><path d="M352,337.94c-40.24,0-77.9-6.51-108.75-19-40.62-16.49-64.58-41.44-67.46-70.25s15.66-58,52.2-82.21,86.6-40.5,141.08-45.95,106.82.61,147.38,17.08S581,179,583.89,207.82s-15.65,58-52.2,82.22S445.09,330.53,390.61,336C377.57,337.29,364.64,337.94,352,337.94Zm55.38-218.87c-12.46,0-25.25.63-38.26,1.93-54.4,5.44-104.42,21.73-140.85,45.86s-54.85,53.14-52,81.75c5.92,59.14,102,98.11,214.29,86.88S589.31,267,583.39,207.87C578.16,155.59,502.41,119.07,407.36,119.07Z" style="fill:#0C6FF9"></path><path d="M356.72,312.77c-33.26,0-64.39-5.46-89.89-16-33.45-13.78-53.19-34.59-55.59-58.6s12.82-48.32,42.88-68.45,71.22-33.65,116-38.13,87.91.62,121.3,14.38,53.19,34.59,55.6,58.6-12.83,48.32-42.88,68.45-71.22,33.64-116,38.13C377.53,312.25,367,312.77,356.72,312.77Zm44.59-182.21c-10.13,0-20.53.51-31.1,1.57-44.74,4.47-85.87,18-115.81,38s-45.05,44.17-42.67,68,22,44.48,55.29,58.19,76.32,18.82,121.06,14.34c92.31-9.24,163.41-56.8,158.48-106C542.2,161.06,479.67,130.56,401.31,130.56Z" style="fill:#0C6FF9"></path><path d="M362.28,291.8c-62.43,0-112.46-25.25-116-61.16-4-40.37,52.12-79.17,125.19-86.48s135.8,19.58,139.84,60c2,19.59-10,39.37-33.68,55.71s-56.14,27.24-91.51,30.78C378,291.41,370,291.8,362.28,291.8Zm33-148.34c-7.76,0-15.7.39-23.77,1.19-72.8,7.29-128.75,45.84-124.74,85.94s66.49,66.8,139.29,59.52c35.29-3.53,67.7-14.43,91.27-30.69s35.41-35.85,33.47-55.25h0C507.19,168.52,457.4,143.46,395.24,143.46Z" style="fill:#0C6FF9"></path><path d="M366.29,273.21c-48.28,0-87.07-20-89.9-48.34-1.55-15.43,7.64-31,25.87-43.81s43.2-21.34,70.44-24.07c56.3-5.64,104.67,15.65,107.86,47.45,1.54,15.42-7.65,31-25.87,43.81s-43.21,21.33-70.45,24.06C378.15,272.92,372.15,273.21,366.29,273.21Zm24.38-116.62q-8.78,0-17.92.9c-27.16,2.72-52.09,11.23-70.21,24s-27.18,28.12-25.66,43.36c3.16,31.52,51.3,52.6,107.31,47,27.16-2.71,52.09-11.23,70.21-24s27.18-28.11,25.66-43.36C477.25,176.39,438.69,156.59,390.67,156.59Z" style="fill:#0C6FF9"></path><path d="M369.93,255.84c-33.94,0-61.2-14.07-63.2-34C305.64,211,312.1,200,324.92,191s30.35-15,49.49-16.91c39.56-4,73.57,11,75.8,33.37,1.09,10.86-5.37,21.81-18.19,30.83s-30.35,15-49.49,16.91C378.25,255.63,374,255.84,369.93,255.84ZM387,174c-4.1,0-8.31.21-12.58.63-19,1.91-36.54,7.88-49.25,16.82s-19,19.7-18,30.37c2.21,22.09,36,36.86,75.25,32.93,19-1.91,36.55-7.88,49.25-16.82s19-19.7,18-30.37C447.75,187.84,420.71,174,387,174Z" style="fill:#0C6FF9"></path><g style="opacity:0.7000000000000001"><path d="M331.58,423.36c-65.35,0-126.4-9.88-176.51-28.93-32.61-12.4-58.8-28-77.85-46.44C57.48,328.91,46.31,307.66,44,284.83s4.45-45.88,20-68.49c15-21.82,37.6-42.33,67.1-60.94C191.81,117.13,274.92,91.07,365.2,82s176.91,0,243.94,25.52c32.61,12.4,58.8,28,77.85,46.44,19.75,19.08,30.91,40.33,33.2,63.16s-4.45,45.88-20,68.49c-15,21.82-37.6,42.33-67.11,60.94C572.41,384.86,489.29,410.92,399,420,376.22,422.23,353.65,423.36,331.58,423.36ZM432.64,79.13c-22.06,0-44.6,1.13-67.39,3.41-90.2,9-173.24,35.05-233.83,73.28s-91.4,84-86.9,129S88.35,368.52,155.25,394,308.77,428.48,399,419.45s173.25-35.05,233.83-73.28,91.4-84,86.9-129S675.87,133.47,609,108C558.92,89,497.92,79.13,432.64,79.13Z" style="fill:#fff"></path><path d="M340.25,391.13c-56,0-108.29-8.76-151.2-25.65-27.67-10.89-49.9-24.57-66.1-40.67-16.78-16.68-26.3-35.23-28.29-55.15s3.66-40,16.8-59.66c12.69-19,31.77-36.8,56.73-53,51.31-33.21,121.69-55.72,198.17-63.37s149.93.46,206.8,22.84c27.67,10.89,49.91,24.58,66.1,40.67,16.78,16.68,26.3,35.24,28.29,55.15s-3.66,40-16.8,59.67C638.07,291,619,308.8,594,325c-51.31,33.21-121.69,55.71-198.17,63.37C377.07,390.21,358.46,391.13,340.25,391.13ZM422,91.36c-18.21,0-36.79.93-55.56,2.81-76.4,7.64-146.7,30.12-198,63.29s-77.22,73-73.3,112.15,37.33,73.07,94.07,95.41,130.16,30.46,206.57,22.81,146.71-30.12,198-63.29,77.23-73,73.3-112.16S629.72,139.31,573,117C530.13,100.12,477.86,91.36,422,91.36Z" style="fill:#fff"></path><path d="M346.57,364.49c-47.77,0-92.47-7.6-129.1-22.25-48.4-19.35-76.93-48.68-80.32-82.59s18.75-68.32,62.36-96.88S302.86,115,367.84,108.45s127.41.56,175.76,19.89,76.93,48.68,80.33,82.6-18.76,68.31-62.37,96.87-103.35,47.82-168.33,54.32C377.47,363.71,361.86,364.49,346.57,364.49Zm67.93-257.9c-15.27,0-30.86.78-46.61,2.36-64.9,6.49-124.6,25.76-168.1,54.24s-65.52,62.69-62.15,96.41,31.79,62.9,80,82.18,110.61,26.35,175.52,19.86,124.61-25.76,168.1-54.25S626.8,244.7,623.43,211s-31.79-62.91-80-82.19C506.84,114.18,462.21,106.59,414.5,106.59Z" style="fill:#fff"></path><path d="M352,337.94c-40.24,0-77.9-6.51-108.75-19-40.62-16.49-64.58-41.44-67.46-70.25s15.66-58,52.2-82.21,86.6-40.5,141.08-45.95,106.82.61,147.38,17.08S581,179,583.89,207.82s-15.65,58-52.2,82.22S445.09,330.53,390.61,336C377.57,337.29,364.64,337.94,352,337.94Zm55.38-218.87c-12.46,0-25.25.63-38.26,1.93-54.4,5.44-104.42,21.73-140.85,45.86s-54.85,53.14-52,81.75c5.92,59.14,102,98.11,214.29,86.88S589.31,267,583.39,207.87C578.16,155.59,502.41,119.07,407.36,119.07Z" style="fill:#fff"></path><path d="M356.72,312.77c-33.26,0-64.39-5.46-89.89-16-33.45-13.78-53.19-34.59-55.59-58.6s12.82-48.32,42.88-68.45,71.22-33.65,116-38.13,87.91.62,121.3,14.38,53.19,34.59,55.6,58.6-12.83,48.32-42.88,68.45-71.22,33.64-116,38.13C377.53,312.25,367,312.77,356.72,312.77Zm44.59-182.21c-10.13,0-20.53.51-31.1,1.57-44.74,4.47-85.87,18-115.81,38s-45.05,44.17-42.67,68,22,44.48,55.29,58.19,76.32,18.82,121.06,14.34c92.31-9.24,163.41-56.8,158.48-106C542.2,161.06,479.67,130.56,401.31,130.56Z" style="fill:#fff"></path><path d="M362.28,291.8c-62.43,0-112.46-25.25-116-61.16-4-40.37,52.12-79.17,125.19-86.48s135.8,19.58,139.84,60c2,19.59-10,39.37-33.68,55.71s-56.14,27.24-91.51,30.78C378,291.41,370,291.8,362.28,291.8Zm33-148.34c-7.76,0-15.7.39-23.77,1.19-72.8,7.29-128.75,45.84-124.74,85.94s66.49,66.8,139.29,59.52c35.29-3.53,67.7-14.43,91.27-30.69s35.41-35.85,33.47-55.25h0C507.19,168.52,457.4,143.46,395.24,143.46Z" style="fill:#fff"></path><path d="M366.29,273.21c-48.28,0-87.07-20-89.9-48.34-1.55-15.43,7.64-31,25.87-43.81s43.2-21.34,70.44-24.07c56.3-5.64,104.67,15.65,107.86,47.45,1.54,15.42-7.65,31-25.87,43.81s-43.21,21.33-70.45,24.06C378.15,272.92,372.15,273.21,366.29,273.21Zm24.38-116.62q-8.78,0-17.92.9c-27.16,2.72-52.09,11.23-70.21,24s-27.18,28.12-25.66,43.36c3.16,31.52,51.3,52.6,107.31,47,27.16-2.71,52.09-11.23,70.21-24s27.18-28.11,25.66-43.36C477.25,176.39,438.69,156.59,390.67,156.59Z" style="fill:#fff"></path><path d="M369.93,255.84c-33.94,0-61.2-14.07-63.2-34C305.64,211,312.1,200,324.92,191s30.35-15,49.49-16.91c39.56-4,73.57,11,75.8,33.37,1.09,10.86-5.37,21.81-18.19,30.83s-30.35,15-49.49,16.91C378.25,255.63,374,255.84,369.93,255.84ZM387,174c-4.1,0-8.31.21-12.58.63-19,1.91-36.54,7.88-49.25,16.82s-19,19.7-18,30.37c2.21,22.09,36,36.86,75.25,32.93,19-1.91,36.55-7.88,49.25-16.82s19-19.7,18-30.37C447.75,187.84,420.71,174,387,174Z" style="fill:#fff"></path></g></g><g id="freepik--Neptune--inject-11"><circle cx="132.92" cy="385.65" r="21.74" transform="translate(-271.38 439.84) rotate(-78.62)" style="fill:#0C6FF9;stroke:#263238;stroke-miterlimit:10"></circle><path d="M147.27,370.55s-3.12-4.33-6.87-2.73-3.43,4.74-3,6.41,2,3.22.92,4.3-3.73,1.84-3.56,3.54a26.23,26.23,0,0,0,.9,4.06l-.19,2.95s.16,1.69-2.21,2.42-3.67-.12-5.2,1.74-2.51,1.72-2.1,3.39.53,2.88,3.92,5,10.5,2.37,15.09-.53,7.74-5.66,8.47-13.06S150.42,372.68,147.27,370.55Z" style="opacity:0.23"></path><path d="M115.32,376s-1.48,2.34-1.48,7.23,4.6,6.87,5.5,3.6-1.14-8.92,2.22-11.95,9.72-5.37,7.35-7.08S116.67,370,115.32,376Z" style="opacity:0.23"></path><path d="M120.38,394.74s-3.58-1.59-3.58.85,3.12,6.77,5,3.41S121.85,394.84,120.38,394.74Z" style="opacity:0.23"></path><path d="M132.25,376.7s-8.34-.39-5.51,3.48S134.94,379.12,132.25,376.7Z" style="opacity:0.23"></path></g><g id="freepik--Uranus--inject-11"><path d="M593.76,107.35a16.34,16.34,0,1,1-21.92,7.33A16.35,16.35,0,0,1,593.76,107.35Z" style="fill:#0C6FF9"></path><g style="opacity:0.34"><path d="M590.91,117.55c2.58-1.3,7.38-1.94,10.48-2.24.11.25.2.52.3.78-4.63,1.75-13.88,5.28-15.22,5.89s-8.25,6.85-11.8,11.28a15.78,15.78,0,0,1-1.49-1.78c1.84-1.82,5.61-5.51,6.58-6.4A72,72,0,0,1,590.91,117.55Z"></path><path d="M585.67,135.31c1.84-1.57,3.41-2.05,6.64-4s7.4-4.7,8.8-5.08c.41-.11.82-.22,1.21-.3a16.09,16.09,0,0,1-1.22,3.33c-1.09.36-2.8,1-5.31,2-5,2.09-7.73,4.9-9.43,5.92l-1.64,1c-.43-.05-.86-.11-1.29-.19A12.43,12.43,0,0,1,585.67,135.31Z"></path><path d="M577.42,134.55c2.3-.19,2.83-3.32,4.24-5s8.15-4.51,12.23-5.76a52.44,52.44,0,0,0,8.76-4.12,16.67,16.67,0,0,1,.14,2.83,43.29,43.29,0,0,1-6.71,3.59c-4.78,2.08-5.26,0-9.22,2.74a42.28,42.28,0,0,0-7.68,7.75,16.52,16.52,0,0,1-2.92-1.87A7.56,7.56,0,0,1,577.42,134.55Z"></path><path d="M594.5,110.15c-2.89.54-4.13,2.49-6.25,5s-4.43,2.67-8.33,4.22c-2.51,1-6.7,4.17-9.37,6.31a16.15,16.15,0,0,1-.4-4,39.73,39.73,0,0,0,3.09-2.66,5.42,5.42,0,0,1,4-1.8c5.9-.74,8.39-2.12,10.19-5.46s6.31-4.34,6.31-4.34a16,16,0,0,1,3.23,2.14A17,17,0,0,1,594.5,110.15Z"></path><path d="M571.41,115.67c.14-.33.27-.66.43-1a16.36,16.36,0,0,1,16.92-8.88c-1.36,2-2.9.58-7.32,3.25s-2.72,4-6.23,4.69A7.52,7.52,0,0,0,571.41,115.67Z"></path><path d="M585.85,110.57s-1,3.38-2.89,4.07a15.75,15.75,0,0,1-5.05.49S582,110.79,585.85,110.57Z"></path></g><g style="opacity:0.34"><path d="M589.51,107.47c-.67.33-1.36.6-2.17.91a34.52,34.52,0,0,0-6,2.85,26.16,26.16,0,0,0-4.06,3.12,9.3,9.3,0,0,1-3.47,2.33,17.18,17.18,0,0,0-3.24,1.5c.09-.39.21-.78.33-1.17a15.33,15.33,0,0,1,2.67-1.16,8.84,8.84,0,0,0,3.13-2.15,26.41,26.41,0,0,1,4.2-3.21,35,35,0,0,1,6.11-2.92c.79-.31,1.47-.57,2.1-.88a5.8,5.8,0,0,0,1-.63c.36.09.71.18,1.06.29A9.22,9.22,0,0,1,589.51,107.47Z"></path><path d="M593.49,111.81c-1.62.68-2.26,1.64-3.23,3.1a27.89,27.89,0,0,1-1.78,2.45,9.18,9.18,0,0,1-4.5,2.81,35,35,0,0,0-12.62,8c-.12-.3-.24-.59-.35-.89a34.19,34.19,0,0,1,6.56-5,33.6,33.6,0,0,1,6.1-2.91c1.79-.68,3-1.12,4.15-2.55a28.75,28.75,0,0,0,1.72-2.38,8.56,8.56,0,0,1,2.73-3,8,8,0,0,1,.88-.45c1.07-.45,2.52-1,3.85-1.52.25.22.5.42.74.65C596.31,110.68,594.67,111.31,593.49,111.81Z"></path><path d="M587.39,122.31a16.17,16.17,0,0,1,2.74-1.34c3.69-1.37,10.62-3.47,11.57-3.75l.3-.32c.1.32.19.65.27,1l-.1.11-.11,0c-.07,0-7.7,2.32-11.63,3.78s-7.29,4.91-9.28,7a42.47,42.47,0,0,1-6.17,4.82l-.31-.33-.23-.36a43,43,0,0,0,6.09-4.73A34.64,34.64,0,0,1,587.39,122.31Z"></path><path d="M579.77,136.86a21.25,21.25,0,0,1,5.85-5.89,10.22,10.22,0,0,1,1.48-.74c1.79-.69,3.3-1.14,4.63-1.53a20.68,20.68,0,0,0,5-2,17.39,17.39,0,0,0,3.1-2.52,9.07,9.07,0,0,1,2.78-2.1l.17-.06c0,.32,0,.63,0,1a9.21,9.21,0,0,0-2.33,1.82,17.32,17.32,0,0,1-3.25,2.64,21.35,21.35,0,0,1-5.23,2.06c-1.31.39-2.8.83-4.55,1.51-3,1.16-5.6,4.43-6.83,6.18C580.31,137.11,580.05,137,579.77,136.86Z"></path></g><g style="opacity:0.45"><path d="M585,151.83a5.09,5.09,0,0,1-1.17,0c-4.49-.57-7.81-7.8-8.68-17.88l1.12.79c.81,9.43,3.76,15.59,7.68,16.09,6.09.78,12.67-11.68,14.71-27.76s-1.23-29.78-7.3-30.55c-4-.51-8.63,5.18-11.75,14.49l-1.25.67c3.32-9.94,8.54-16.74,13.13-16.15,6.72.85,10.31,14.76,8.16,31.67C597.67,139.11,591.38,151.2,585,151.83Z" style="fill:#fff"></path></g></g><g id="freepik--Saturn--inject-11"><circle cx="420.12" cy="356.03" r="25.94" transform="translate(-129.83 327.62) rotate(-37.32)" style="fill:#0C6FF9;stroke:#263238;stroke-miterlimit:10"></circle><g style="opacity:0.28"><path d="M442,342.14l-47,20.23c.11.45.23.9.37,1.34l47.38-20.39C442.51,342.92,442.25,342.53,442,342.14Z"></path><path d="M429.21,331.74c-.66-.25-1.32-.46-2-.65L397.17,344c-.07.14-.16.27-.23.41-.24.48-.44,1-.65,1.46Z"></path><path d="M411.31,380.41l32.76-14.47q.36-.9.66-1.8l-35.18,15.54C410.13,379.94,410.71,380.2,411.31,380.41Z"></path><path d="M437,336.38c-.38-.33-.77-.66-1.18-1l-41.6,18.75c0,.51,0,1,0,1.53Z"></path><path d="M395.82,365.05c.16.43.32.86.5,1.28l47.5-20.85c-.19-.42-.41-.82-.62-1.23Z"></path><path d="M442.64,368.84c.22-.39.46-.76.66-1.16s.22-.53.34-.79l-31.39,13.83c.7.22,1.4.42,2.1.58Z"></path><path d="M403.38,375.82l42.62-18c0-.51,0-1,0-1.51l-43.81,18.51C402.59,375.16,403,375.49,403.38,375.82Z"></path></g><path d="M463.07,336.55c-2.3-5.12-13.45-5.46-28-1.71a26,26,0,0,1,4.49,4.05c5.33-.62,9.06,0,10.11,2,2.34,4.56-9.56,14.48-26.59,22.15S390.37,373.26,388,368.7c-1.19-2.32,1.32-6,6.31-10.14a26.28,26.28,0,0,1,.07-5.81c-13.57,8.76-21.51,17.9-19.1,23.26,3.37,7.5,25.75,4.75,50-6.14S466.44,344.05,463.07,336.55Z" style="fill:#fff;stroke:#263238;stroke-miterlimit:10"></path><path d="M436.19,336.63c11.26-2.51,19.62-2,21.37,1.95,2.82,6.35-12.31,19.22-33.79,28.73s-41.17,12.07-44,5.71c-1.87-4.22,4.18-11.32,14.76-18.39" style="fill:none;stroke:#263238;stroke-miterlimit:10"></path></g><g id="freepik--Jupiter--inject-11"><circle cx="182.13" cy="213.75" r="27.33" transform="translate(-97.72 237.09) rotate(-54.33)" style="fill:#0C6FF9"></circle><g style="opacity:0.34"><path d="M192.52,215.23c4.75-.85,11.81-4.79,16.26-7.51-.1-.45-.24-.9-.37-1.34-8,2.29-23.88,6.85-26.28,7.37-2.57.56-17.91-.92-27.1-3.29a26.77,26.77,0,0,0-.21,3.89c4.28.58,13,1.75,15.22,2A119.71,119.71,0,0,0,192.52,215.23Z"></path><path d="M167.69,196.7c4,.26,6.62-.67,12.92-1.3s14.6-1.12,16.85-2c.66-.26,1.32-.53,1.92-.81a27.12,27.12,0,0,0-5-3.23c-1.82.6-4.74,1.48-9.15,2.59-8.8,2.22-15.26,1.19-18.57,1.52l-3.18.32c-.53.49-1,1-1.54,1.55A20.7,20.7,0,0,0,167.69,196.7Z"></path><path d="M157.42,206c3.26-2.06,7.11,1.61,10.66,2.41s15.43-2.12,22.15-4.53c4.65-1.67,11.86-2.76,15.85-3.28a28.32,28.32,0,0,0-2.64-3.92,70.37,70.37,0,0,0-12.58,1.92c-8.49,2-7,5.34-15.09,5.57s-18.06-2.68-18.06-2.68a27.8,27.8,0,0,0-2,5.42A12.51,12.51,0,0,0,157.42,206Z"></path><path d="M204.74,221.53c-4.42,2.18-8,.81-13.37-.4s-8.6.86-15.37,2.7c-4.36,1.18-13.16,1.13-18.87.94a27.23,27.23,0,0,0,3.51,5.82c1.67-.13,3.44.25,6.82.47s4,.19,7.19-1.62c8.63-4.93,13.34-5.57,19.1-2.91,6,2.74,12.8-.51,12.8-.51a28,28,0,0,0,2.18-6.1A30.28,30.28,0,0,0,204.74,221.53Z"></path><path d="M168.29,237.27c.52.31,1,.62,1.57.89a27.31,27.31,0,0,0,31.54-5.06c-3.78-1.25-4.46,2.14-13,3s-7.62-2.58-13.05,0A12.36,12.36,0,0,1,168.29,237.27Z"></path><path d="M192.73,229.64s-4.71-3.54-7.95-2.55-7.25,4.4-7.25,4.4S187.4,233.18,192.73,229.64Z"></path></g><g style="opacity:0.34"><path d="M200.73,230.12c-1.21.23-2.42.57-3.81,1a58.75,58.75,0,0,1-10.86,2.17,43.35,43.35,0,0,1-8.56-.1c-2.78-.24-5-.42-7,.35a28.48,28.48,0,0,1-5.85,1.24c.52.44,1.06.84,1.62,1.24a25,25,0,0,0,4.74-1.13c1.71-.65,3.76-.48,6.35-.26a44.93,44.93,0,0,0,8.83.11,61,61,0,0,0,11.1-2.22c1.36-.39,2.54-.72,3.7-.94a10.54,10.54,0,0,1,2-.16c.39-.47.77-.95,1.13-1.44A16.1,16.1,0,0,0,200.73,230.12Z"></path><path d="M201.72,220.33c-2.86.7-4.68.06-7.44-.92a45.92,45.92,0,0,0-4.83-1.5c-3.37-.83-5.67-.16-8.85.75a58.51,58.51,0,0,1-24.89,2c.13.52.26,1,.43,1.54a57.15,57.15,0,0,0,13.78.13A56.3,56.3,0,0,0,181,220.06c3.07-.89,5.1-1.48,8.1-.74a41.64,41.64,0,0,1,4.69,1.46c2.3.81,4.19,1.48,6.63,1.24a11.83,11.83,0,0,0,1.64-.29c1.88-.46,4.38-1.16,6.66-1.82.12-.53.26-1.07.35-1.61C206.62,219,203.8,219.81,201.72,220.33Z"></path><path d="M183,212.38a27.4,27.4,0,0,0,5-.95c6.32-1.87,17.69-6,19.26-6.57l.71.12c-.18-.54-.39-1.06-.6-1.58l-.24,0-.18.07c-.13,0-12.64,4.62-19.36,6.61s-14.68.71-19.41,0-12-.34-13.1-.27c0,.25-.05.49-.08.74l.05.72c.08,0,7.94-.57,12.9.24C171.71,212,177.39,212.94,183,212.38Z"></path><path d="M158.25,200.53c2.91,1,8.57,2.55,13.73,2a15.46,15.46,0,0,0,2.73-.5c3.08-.86,5.55-1.77,7.73-2.58a34.18,34.18,0,0,1,8.7-2.4,28.85,28.85,0,0,1,6.66.27,15.24,15.24,0,0,0,5.83,0l.29-.08c-.32-.42-.63-.86-1-1.27a15.21,15.21,0,0,1-5-.11,29.77,29.77,0,0,0-7-.27,35.9,35.9,0,0,0-9.07,2.48c-2.15.8-4.58,1.7-7.61,2.55-5.18,1.44-11.94-.33-15.33-1.43C158.72,199.65,158.49,200.1,158.25,200.53Z"></path></g></g><g id="freepik--Mars--inject-11"><path d="M294.76,308.3a14.31,14.31,0,1,0-19.21,6.36A14.32,14.32,0,0,0,294.76,308.3Z" style="fill:#0C6FF9;stroke:#263238;stroke-miterlimit:10"></path><g style="opacity:0.4"><path d="M290.6,298.19c.58-.71,1.76.61,1-1.67s-.42-4.14-3-4.93c0,0-2.94-.62-3.35.47s.73.84.09,2.21S285,296,283.84,296s-2.23-4-3.73-.67-2.44,4.3-1.49,4.72,3.33-.72,4,.39.82,2.93.06,3.13-2-1.5-2.93-.49-.45,3.32.4,4,4.51,3.2,7.36,1.61,4.27-1.73,3.9-4.05-1.21-3-1.49-4.43S290,298.9,290.6,298.19Z"></path><path d="M272.15,304.61c-.36.38-1.56,1.34-.94,2.32s1.36,1.83,1.75,1.79,1.59.23,1.7-1.22,1.13-.51.12-1.45S273,303.75,272.15,304.61Z"></path><path d="M282.74,311.14c-1.67.29-2.91.94-1.4,1.7s4.81-.34,4.81-.34,1-1.29.47-1.75S284.41,310.84,282.74,311.14Z"></path><path d="M282.83,309.43c-1.14-.93-3.52.09-3.52.09s-1.42-1.17-2.28-.56-1.91,1.76-.46,1.88,2.6-1.44,4.38-.57S284,310.36,282.83,309.43Z"></path><path d="M271.3,296.07c-.43,2.27,1.5.63,1.21,1.71s-1.73,1-1.79,2.92,2.25,2.92,2.65,1.7,1-3,1-3a3,3,0,0,0,.66-2.55C274.86,295.06,271.72,293.81,271.3,296.07Z"></path><path d="M294.25,302c-.79-2.67-1.36.79-1.36.79a1.57,1.57,0,0,1,.05,1.5l0,.07c-.42.95-1.42,1.45-1,2.05S295,304.68,294.25,302Z"></path></g></g><g id="freepik--Earth--inject-11"><path d="M498.3,260.21a5.72,5.72,0,1,0-5.12,6.25A5.72,5.72,0,0,0,498.3,260.21Z" style="fill:#fff;stroke:#263238;stroke-miterlimit:10"></path><circle cx="466.75" cy="266.3" r="15.87" transform="translate(-32.06 466.22) rotate(-51.55)" style="fill:#0C6FF9;stroke:#263238;stroke-miterlimit:10"></circle><path d="M475.94,261.86l2.53,1.84c1.08-2.2,1.24-3.26.39-3.95s-3.18-3.07-3.18-3.07a3.83,3.83,0,0,0-3.28-1.5l-3.35.34a8,8,0,0,0-2.48-.67c1.52-1.44,2.74-1.27,1-1.53-2.12-.31-3.43-.43-4.18-.1s-1.76.7-2.76,1.06a7,7,0,0,0-4.62,3.33s-2.67,2.86-2.75,4.13c-.06.9,1.47-.38,2.36-1.19l-.2,1.55s-.26,2.63,1.08,3l1.34.38a5.86,5.86,0,0,0,3,1.27s.8.18.7,1.75a27.61,27.61,0,0,0,.1,3.64s-.77.08,1,2a40.32,40.32,0,0,0,3.74,3.53s1.52,2.2,1.88.6,1.19-3.77.85-4.52,1.6.36-.33-.75a18.39,18.39,0,0,1-3.38-2.53c-1.5-1.93-1.81.18-1.5-1.93s.44-3.43.44-3.43a6.89,6.89,0,0,0-3.8-1.45c-1-2.5-1.65-3.48-.92-4.08,0,0,.53,1.46,1.18,1.61s.66-1.75.66-1.75l2-3.11s1.62.45,2.3-.49a3.48,3.48,0,0,1-.73,3.2l.24,2.32,3.84-.64-1.57,2.5-.73,3.07.68,1.63,2.5,1.57,3.64,5.11a4.53,4.53,0,0,0,2.45-1.55,8.58,8.58,0,0,0,1.47-3.53c.13-1.32.85-1.91,0-2.87l-.87-1s-1.66-.88-1.48-1.68A15.48,15.48,0,0,1,475.94,261.86Z" style="fill:#263238"></path></g><g id="freepik--Venus--inject-11"><circle cx="384.22" cy="272.06" r="15.02" transform="translate(-68.73 400.43) rotate(-51.12)" style="fill:#fff;stroke:#263238;stroke-miterlimit:10"></circle><g style="opacity:0.21"><path d="M392.41,260a4.47,4.47,0,0,1,1.12.26,15,15,0,0,0-6.24-2.94c-1.09,1.08-4.44,4.44-6.55,7l-1.57,1.91-3,3.65a113.26,113.26,0,0,0,9.22-6.66C387.74,261.13,392.41,260,392.41,260Z"></path><path d="M397.38,264.82a15.47,15.47,0,0,0-1.83-2.61,17.75,17.75,0,0,1-2.32,2.83c-3.72,4.2-6,4.11-3.72,4.2C391.46,269.32,396.2,265.73,397.38,264.82Z"></path><path d="M399.17,270.57l0,2.52A15.16,15.16,0,0,0,399.17,270.57Z"></path><path d="M395.24,261.88c-.15-.17-.3-.34-.47-.51h0A.79.79,0,0,0,395.24,261.88Z"></path><path d="M399.15,273.72a40.3,40.3,0,0,0-5.35,3.38c-2.37,1.83-8.87,6.94-8.87,6.94l-4.22,2.34a4,4,0,0,0-.41.18,15,15,0,0,0,5.41.45c1.89-.6,5.07-6.52,12.09-8.56A15.15,15.15,0,0,0,399.15,273.72Z"></path></g><g style="opacity:0.21"><path d="M388.62,273.15s-12.38,6.59-16.44,7.88a15.51,15.51,0,0,0,2.66,2.77c1.78-.94,3.8-2.1,5.9-3.48,5.68-3.76,7-3.57,10.5-6.47S388.62,273.15,388.62,273.15Z"></path><path d="M371.53,280.1c1.66-1.77,5.75-3.82,6.24-7.13.4-2.77-4.82,1.17-7.86,3.67A15,15,0,0,0,371.53,280.1Z"></path></g></g><g id="freepik--Mercury--inject-11"><path d="M450.66,230.4a10.86,10.86,0,1,0-9.73,11.89A10.86,10.86,0,0,0,450.66,230.4Z" style="fill:#fff;stroke:#263238;stroke-miterlimit:10"></path><path d="M433.51,228.21a.41.41,0,1,1-.44-.37A.4.4,0,0,1,433.51,228.21Z" style="fill:#263238"></path><path d="M436.19,226.7a.58.58,0,0,1-.52.64.58.58,0,1,1,.52-.64Z" style="fill:#263238"></path><path d="M435.9,230.86a.11.11,0,0,1-.11.12.11.11,0,0,1-.12-.1.12.12,0,1,1,.23,0Z" style="fill:#263238"></path><path d="M442,229.13a.29.29,0,0,1-.26.32.29.29,0,1,1-.06-.58A.29.29,0,0,1,442,229.13Z" style="fill:#263238"></path><path d="M440.38,226.22a.41.41,0,1,1-.81.09.41.41,0,0,1,.37-.45A.4.4,0,0,1,440.38,226.22Z" style="fill:#263238"></path><path d="M437.52,229.34a.19.19,0,0,1-.16.19.17.17,0,0,1-.19-.16.18.18,0,0,1,.15-.19A.18.18,0,0,1,437.52,229.34Z" style="fill:#263238"></path><path d="M440.09,231.5a.23.23,0,0,1-.21.25.23.23,0,0,1-.26-.21.23.23,0,0,1,.21-.25A.24.24,0,0,1,440.09,231.5Z" style="fill:#263238"></path><path d="M434.48,234.35A.41.41,0,1,1,434,234,.4.4,0,0,1,434.48,234.35Z" style="fill:#263238"></path><path d="M439.53,235.38a.53.53,0,1,1-1,.11.54.54,0,0,1,.48-.58A.52.52,0,0,1,439.53,235.38Z" style="fill:#263238"></path><path d="M444.27,231a.46.46,0,0,1-.42.51.47.47,0,0,1-.51-.42.48.48,0,0,1,.42-.51A.46.46,0,0,1,444.27,231Z" style="fill:#263238"></path><path d="M444.46,224.58a.34.34,0,0,1-.31.38.35.35,0,0,1-.39-.31.36.36,0,0,1,.32-.39A.36.36,0,0,1,444.46,224.58Z" style="fill:#263238"></path><path d="M439.64,223.53a.36.36,0,0,1-.31.39.37.37,0,0,1-.39-.32.35.35,0,0,1,.7-.07Z" style="fill:#263238"></path><path d="M447.46,228.64a.24.24,0,0,1-.47.05.24.24,0,0,1,.47-.05Z" style="fill:#263238"></path><path d="M446,232.67a.35.35,0,0,1-.32.39.35.35,0,1,1,.32-.39Z" style="fill:#263238"></path><path d="M443.28,235.18a.35.35,0,0,1-.31.39.35.35,0,1,1-.07-.7A.35.35,0,0,1,443.28,235.18Z" style="fill:#263238"></path><path d="M441.25,238.45a.35.35,0,0,1-.31.38.35.35,0,1,1-.07-.7A.35.35,0,0,1,441.25,238.45Z" style="fill:#263238"></path><path d="M433.85,238.66a.41.41,0,1,1-.81.08.4.4,0,0,1,.36-.45A.41.41,0,0,1,433.85,238.66Z" style="fill:#263238"></path><path d="M436.49,237.92a.41.41,0,1,1-.45-.36A.4.4,0,0,1,436.49,237.92Z" style="fill:#263238"></path><path d="M432.22,230.58a.52.52,0,0,1-.47.57.53.53,0,0,1-.11-1.05A.54.54,0,0,1,432.22,230.58Z" style="fill:#263238"></path><path d="M432.58,233a.36.36,0,0,1-.32.39.35.35,0,0,1-.38-.31.35.35,0,0,1,.31-.39A.36.36,0,0,1,432.58,233Z" style="fill:#263238"></path><path d="M446.37,236.58a.41.41,0,0,1-.37.45.41.41,0,0,1-.45-.37.41.41,0,0,1,.82-.08Z" style="fill:#263238"></path><path d="M449.13,232.36a.24.24,0,0,1-.47,0,.24.24,0,0,1,.21-.26A.24.24,0,0,1,449.13,232.36Z" style="fill:#263238"></path><path d="M438.13,231.93a.46.46,0,0,1-.42.51.47.47,0,1,1,.42-.51Z" style="fill:#263238"></path><path d="M436.86,224a.4.4,0,0,1-.37.44.41.41,0,0,1-.08-.81A.41.41,0,0,1,436.86,224Z" style="fill:#263238"></path><path d="M433.42,224.92a.17.17,0,0,1-.16.19.18.18,0,0,1,0-.35A.17.17,0,0,1,433.42,224.92Z" style="fill:#263238"></path><path d="M444,238.3a.23.23,0,0,1-.21.25.23.23,0,0,1-.26-.21.23.23,0,0,1,.21-.25A.23.23,0,0,1,444,238.3Z" style="fill:#263238"></path><path d="M438.76,239.46a.29.29,0,0,1-.26.32.29.29,0,1,1-.06-.58A.29.29,0,0,1,438.76,239.46Z" style="fill:#263238"></path><path d="M444.51,227.4a.24.24,0,0,1-.47,0,.24.24,0,1,1,.47,0Z" style="fill:#263238"></path><path d="M442.69,223.4a.29.29,0,0,1-.26.32.29.29,0,1,1-.06-.58A.29.29,0,0,1,442.69,223.4Z" style="fill:#263238"></path></g><g id="freepik--Sun--inject-11"><path d="M417.28,199.38c-.22-2.22,2.75-5,2.21-7.07s-4.52-3.1-5.39-5.08,1.08-5.58-.09-7.41-5.25-1.53-6.7-3.16-.69-5.62-2.38-7-5.45.17-7.35-.94-2.37-5.14-4.42-5.94-5.12,1.84-7.27,1.37-3.84-4.14-6.05-4.27-4.28,3.34-6.49,3.57-5-2.76-7.07-2.21-3.1,4.51-5.09,5.39-5.57-1.09-7.4.09-1.53,5.24-3.16,6.7-5.62.68-7,2.38.17,5.45-.94,7.34-5.14,2.38-5.94,4.43,1.84,5.11,1.37,7.27-4.15,3.83-4.27,6,3.34,4.27,3.56,6.49-2.75,5-2.2,7.07,4.51,3.1,5.38,5.08-1.08,5.57.1,7.41,5.24,1.52,6.7,3.15.68,5.63,2.38,7,5.45-.17,7.34.94,2.37,5.14,4.42,5.94,5.12-1.84,7.28-1.38,3.83,4.15,6.05,4.28,4.27-3.34,6.49-3.57,5,2.76,7.07,2.21,3.09-4.51,5.08-5.39,5.57,1.09,7.4-.09,1.53-5.24,3.16-6.7,5.63-.68,7-2.38-.16-5.45.95-7.34,5.14-2.38,5.94-4.43-1.85-5.11-1.38-7.27,4.15-3.84,4.27-6S417.5,201.59,417.28,199.38Z" style="fill:#0C6FF9"></path><circle cx="377.34" cy="203.37" r="37.25" transform="translate(-37.62 310.87) rotate(-42.85)" style="fill:#0C6FF9;stroke:#263238;stroke-miterlimit:10"></circle><circle cx="377.34" cy="203.37" r="25.73" transform="translate(172.83 580.1) rotate(-89.83)" style="fill:#fff;opacity:0.23"></circle><circle cx="377.34" cy="203.37" r="15.11" transform="translate(129.98 553.46) rotate(-83.08)" style="fill:#fff;opacity:0.42"></circle><path d="M399.94,182.34s-8.17-8.89-13.84-8-.45,4.6,1.89,6.79,1.26,6.54-1,4.95-3.48-7.53-5.34-1.89-1.08,7.38,1.35,7.44,3.81-1.29,5.28-1.74,4,.21,3.4,3.6.39,3.9-1.68,4.41-4.3-.48-4.66,2a4.28,4.28,0,0,0,4.15,5c3.06.3,5.25,1,5.46-3s4.17-9.82,5.79-5.74,4.92,6.78,5.7,2.46,4.14-7.08-2.16-9.48S402.1,185.76,399.94,182.34Z" style="opacity:0.11"></path><path d="M376.71,207.7s-.45,1.56-2.85,1.8-2.43-3.09-5.76-6.09-7.51-2.28-6.21,1.53,3.87,5.37,1.92,7.08-4.93-3.75-7.15-1.71-2.85,4.83-.33,5.79,6.52,1.47,6.79,4.17-1.17,3.46,2,5.26,7.77,1.95,8.25-2.35,3.6-6.42,8-5,7.63-2.58,5.17-6S380.61,204.28,376.71,207.7Z" style="opacity:0.11"></path><path d="M370.74,190.41s.9-3.12-3-2.43-6.13,2.43-6.22,4.56.39,3.91,1.63,4.09,3.21-1.24,4.83-.19a5.67,5.67,0,0,1,2.79,3.67c.12,1.2-2.94,2.43,1.8,2.85s6-.3,6.93-3.42,1.29-5.29-1.32-7.15S373.86,188.28,370.74,190.41Z" style="opacity:0.11"></path><path d="M398.86,210.94a6.72,6.72,0,0,1-3.21,4.26c-2.85,1.8-4.11,1.32-5.25,5.07s-6.85,1.29-10.66,2.58-3.21,7.3.54,8.44,10.66.45,14.05-2,1.14-6.79,4.68-7.75,9.51-1.86,9.24-7.59S402.07,206.68,398.86,210.94Z" style="opacity:0.11"></path><path d="M354.89,204.73s.66-5.52-4.92-6.78-7.53,3.48-5.67,10,8.43,8.55,7.32,3.51S355.52,208,354.89,204.73Z" style="opacity:0.11"></path><path d="M354.38,181.44s-4.8,3.51-5.25,8.1,3.6,8.74,6.09,6.37,1.17-6.49,5.55-8.14,8.08-4.14,4.75-7.14S357.65,177.78,354.38,181.44Z" style="opacity:0.11"></path><path d="M362.4,228.23s-2.43-.06-5.2-3.42-7.11-4.44-5.73.27,6.61,8.43,11.23,9.18,10.17-1.32,6.87-4S364.17,227.75,362.4,228.23Z" style="opacity:0.11"></path><path d="M375.69,170.21s-7.2.72-8.13,3.55,6.06,3,4.77,5.28-7.23,3.45-4,5.85,10.95,3.45,10.32.18-3-6.06-.75-7.5.9-3.12,3.09-5.47S379.26,169.55,375.69,170.21Z" style="opacity:0.11"></path></g></svg>